<?xml version="1.0" encoding="UTF-8"?><svg xmlns="http://www.w3.org/2000/svg" xmlns:xlink="http://www.w3.org/1999/xlink" viewBox="0 0 48 48" version="1.1"><g id="surface1"><path d="M9 28h3v14H9z" fill="#607D8B"/><path d="M9 39h26v3H9z" fill="#607D8B"/><path d="M32 28h3v14h-3z" fill="#607D8B"/><path d="M15 34h14v3H15z" fill="#607D8B"/><path d="M15.082 28.262L29 29.758l-.32 2.984-13.918-1.5z" fill="#A68A6E"/><path d="M36.871 6l2.133 13.836-2.965.457-2.137-13.836z" fill="#EF6C00"/><path d="M28.469 8.234l6.832 12.22-2.621 1.464-6.828-12.219z" fill="#FF9800"/><path d="M20.5 14.55L32 22.532 30.29 25l-11.5-7.984z" fill="#D38B28"/><path d="M16.898 21.219l13.176 4.738-1.015 2.824-13.176-4.738z" fill="#C09553"/></g><metadata><rdf:RDF xmlns:rdf="http://www.w3.org/1999/02/22-rdf-syntax-ns#" xmlns:rdfs="http://www.w3.org/2000/01/rdf-schema#" xmlns:dc="http://purl.org/dc/elements/1.1/"><rdf:Description about="https://iconscout.com/legal#licenses" dc:title="stack,overflow" dc:description="stack,overflow" dc:publisher="Iconscout" dc:date="2017-12-15" dc:format="image/svg+xml" dc:language="en"><dc:creator><rdf:Bag><rdf:li>Icons8</rdf:li></rdf:Bag></dc:creator></rdf:Description></rdf:RDF></metadata></svg>